<svg width="24" height="25" viewBox="0 0 24 25" fill="none" xmlns="http://www.w3.org/2000/svg">
<path fill-rule="evenodd" clip-rule="evenodd" d="M11.5661 20.3977C11.6992 20.4632 11.8496 20.5 12.0098 20.5C12.3317 20.5 12.6193 20.3459 12.8025 20.1077L16.7103 16.2C17.1003 15.8 17.1003 15.17 16.7103 14.78C16.3103 14.38 15.6803 14.38 15.2903 14.78L13.0098 17.0605V5.5C13.0098 4.94 12.5598 4.5 12.0098 4.5C11.4498 4.5 11.0098 4.94 11.0098 5.5V17.0786L8.72 14.7889C8.32 14.3899 7.69 14.3899 7.3 14.7899C6.9 15.1799 6.9 15.8099 7.3 16.2099L11.3 20.2099C11.3761 20.286 11.4666 20.3496 11.5661 20.3977Z" fill="#131313"/>
</svg>
