<svg width="93" height="40" viewBox="0 0 93 40" fill="none" xmlns="http://www.w3.org/2000/svg">
<path d="M3.04715 10.3073V1.65986H8.26602V2.58879H4.0943V5.51068H7.99579V6.4396H4.0943V9.37839H8.33358V10.3073H3.04715ZM14.9063 3.82172C14.8556 3.39386 14.6501 3.06169 14.2898 2.82524C13.9295 2.58879 13.4876 2.47056 12.964 2.47056C12.5812 2.47056 12.2462 2.53249 11.9591 2.65635C11.6748 2.7802 11.4524 2.9505 11.2919 3.16725C11.1343 3.384 11.0555 3.63031 11.0555 3.90617C11.0555 4.137 11.1104 4.33545 11.2201 4.50153C11.3327 4.66479 11.4763 4.80132 11.6508 4.9111C11.8253 5.01807 12.0083 5.10674 12.1997 5.17711C12.3911 5.24467 12.5671 5.29956 12.7275 5.34178L13.6058 5.57824C13.831 5.63735 14.0815 5.71898 14.3574 5.82314C14.6361 5.92729 14.9021 6.06944 15.1554 6.2496C15.4116 6.42694 15.6227 6.65495 15.7888 6.93362C15.9548 7.2123 16.0379 7.55432 16.0379 7.95966C16.0379 8.42694 15.9154 8.84918 15.6705 9.22638C15.4285 9.60358 15.0738 9.90337 14.6065 10.1257C14.142 10.3481 13.5776 10.4593 12.9133 10.4593C12.294 10.4593 11.7578 10.3594 11.3046 10.1595C10.8542 9.95967 10.4995 9.68099 10.2405 9.3235C9.98439 8.966 9.83942 8.5508 9.80564 8.07789H10.8866C10.9147 8.40442 11.0245 8.67466 11.2159 8.88859C11.4101 9.09971 11.655 9.25734 11.9506 9.3615C12.249 9.46283 12.5699 9.5135 12.9133 9.5135C13.313 9.5135 13.6719 9.44876 13.99 9.31927C14.3081 9.18697 14.56 9.004 14.7458 8.77036C14.9316 8.53391 15.0245 8.25805 15.0245 7.94277C15.0245 7.65565 14.9443 7.42201 14.7838 7.24186C14.6234 7.0617 14.4123 6.91533 14.1505 6.80273C13.8887 6.69013 13.6058 6.59161 13.3018 6.50716L12.2377 6.20315C11.5622 6.00892 11.0273 5.73165 10.6332 5.37134C10.2391 5.01103 10.0421 4.53953 10.0421 3.95684C10.0421 3.47267 10.173 3.05043 10.4348 2.69012C10.6994 2.327 11.0541 2.04551 11.4988 1.84565C11.9464 1.64297 12.446 1.54163 12.9978 1.54163C13.5551 1.54163 14.0505 1.64156 14.484 1.84142C14.9175 2.03847 15.261 2.3087 15.5143 2.65212C15.7705 2.99554 15.9056 3.38541 15.9197 3.82172H14.9063ZM24.7418 4.36219H23.6947C23.6328 4.06099 23.5244 3.79639 23.3696 3.56838C23.2176 3.34037 23.0318 3.14896 22.8122 2.99414C22.5955 2.8365 22.3548 2.71827 22.0902 2.63946C21.8256 2.56064 21.5497 2.52123 21.2626 2.52123C20.739 2.52123 20.2647 2.65353 19.8396 2.91813C19.4174 3.18274 19.081 3.5726 18.8305 4.08774C18.5828 4.60287 18.4589 5.23482 18.4589 5.98359C18.4589 6.73236 18.5828 7.36431 18.8305 7.87944C19.081 8.39457 19.4174 8.78444 19.8396 9.04904C20.2647 9.31364 20.739 9.44594 21.2626 9.44594C21.5497 9.44594 21.8256 9.40654 22.0902 9.32772C22.3548 9.2489 22.5955 9.13208 22.8122 8.97726C23.0318 8.81962 23.2176 8.6268 23.3696 8.39879C23.5244 8.16797 23.6328 7.90337 23.6947 7.60498H24.7418C24.663 8.04693 24.5195 8.44242 24.3112 8.79147C24.1029 9.14053 23.8439 9.4375 23.5342 9.6824C23.2246 9.92448 22.877 10.1089 22.4913 10.2355C22.1085 10.3622 21.6989 10.4255 21.2626 10.4255C20.5251 10.4255 19.8692 10.2454 19.295 9.88507C18.7207 9.52476 18.2689 9.01245 17.9396 8.34812C17.6102 7.6838 17.4456 6.89562 17.4456 5.98359C17.4456 5.07155 17.6102 4.28337 17.9396 3.61905C18.2689 2.95473 18.7207 2.44241 19.295 2.0821C19.8692 1.72179 20.5251 1.54163 21.2626 1.54163C21.6989 1.54163 22.1085 1.60497 22.4913 1.73164C22.877 1.85831 23.2246 2.0441 23.5342 2.289C23.8439 2.53108 24.1029 2.82665 24.3112 3.1757C24.5195 3.52193 24.663 3.91743 24.7418 4.36219ZM33.754 5.98359C33.754 6.89562 33.5894 7.6838 33.26 8.34812C32.9307 9.01245 32.4789 9.52476 31.9046 9.88507C31.3304 10.2454 30.6745 10.4255 29.937 10.4255C29.1995 10.4255 28.5436 10.2454 27.9694 9.88507C27.3951 9.52476 26.9433 9.01245 26.614 8.34812C26.2846 7.6838 26.12 6.89562 26.12 5.98359C26.12 5.07155 26.2846 4.28337 26.614 3.61905C26.9433 2.95473 27.3951 2.44241 27.9694 2.0821C28.5436 1.72179 29.1995 1.54163 29.937 1.54163C30.6745 1.54163 31.3304 1.72179 31.9046 2.0821C32.4789 2.44241 32.9307 2.95473 33.26 3.61905C33.5894 4.28337 33.754 5.07155 33.754 5.98359ZM32.7407 5.98359C32.7407 5.23482 32.6154 4.60287 32.3649 4.08774C32.1171 3.5726 31.7808 3.18274 31.3557 2.91813C30.9335 2.65353 30.4606 2.52123 29.937 2.52123C29.4134 2.52123 28.9391 2.65353 28.514 2.91813C28.0918 3.18274 27.7554 3.5726 27.5049 4.08774C27.2572 4.60287 27.1333 5.23482 27.1333 5.98359C27.1333 6.73236 27.2572 7.36431 27.5049 7.87944C27.7554 8.39457 28.0918 8.78444 28.514 9.04904C28.9391 9.31364 29.4134 9.44594 29.937 9.44594C30.4606 9.44594 30.9335 9.31364 31.3557 9.04904C31.7808 8.78444 32.1171 8.39457 32.3649 7.87944C32.6154 7.36431 32.7407 6.73236 32.7407 5.98359ZM35.5385 10.3073V1.65986H36.5857V9.37839H40.6054V10.3073H35.5385ZM43.151 10.3073H42.0532L45.2284 1.65986H46.3094L49.4846 10.3073H48.3868L45.8027 3.02792H45.7351L43.151 10.3073ZM43.5564 6.9294H47.9814V7.85833H43.5564V6.9294Z" fill="black"/>
<path d="M20.6875 34.1976L18.7578 34.3753C17.8268 28.5355 16.8197 23.5335 15.7363 19.3694C15.1777 20.6898 14.5599 22.5517 13.8828 24.9554C13.2227 27.3421 12.7656 28.8909 12.5117 29.6019C12.4779 29.6019 12.4186 29.6103 12.334 29.6273C12.2663 29.6273 12.207 29.6273 12.1562 29.6273C11.9193 29.6273 11.5299 29.6019 10.9883 29.5511C10.4466 29.5003 10.0996 29.4749 9.94727 29.4749C9.93034 28.984 9.4987 27.3506 8.65234 24.5745C7.80599 21.7816 7.29818 19.9957 7.12891 19.2171C6.82422 21.9593 5.63932 26.9528 3.57422 34.1976L2 34.0452C2.23698 32.2002 2.82096 29.2972 3.75195 25.3362C4.68294 21.3753 5.23307 18.3115 5.40234 16.1448C5.70703 16.111 5.95247 16.0941 6.13867 16.0941C6.30794 16.0941 6.93424 16.1618 8.01758 16.2972C8.25456 16.331 8.5931 17.1012 9.0332 18.6077C9.49023 20.0973 9.94727 21.7392 10.4043 23.5335C10.8613 25.3278 11.1491 26.3857 11.2676 26.7073C11.7415 25.5394 12.3086 23.6435 12.9688 21.0198C13.6458 18.3961 14.1198 16.7288 14.3906 16.0179C14.6615 16.0348 15.5163 16.111 16.9551 16.2464C17.3952 17.956 17.8184 19.8011 18.2246 21.7816C18.6478 23.762 19.0964 26.0133 19.5703 28.5355C20.0612 31.0576 20.4336 32.945 20.6875 34.1976ZM29.3215 21.4515L30.5403 21.68V21.9339C30.5403 23.0849 30.608 25.0316 30.7434 27.7737C30.8958 30.5159 31.0312 32.6318 31.1497 34.1214C30.8111 34.2568 30.4895 34.3245 30.1848 34.3245C29.914 34.3245 29.6093 34.2822 29.2708 34.1976L29.0676 33.5374C27.9843 34.1468 26.9517 34.4515 25.97 34.4515C25.2421 34.4515 24.6073 34.2822 24.0657 33.9437C23.5409 33.6051 23.1347 33.1904 22.8469 32.6995C22.5592 32.1917 22.3306 31.5739 22.1614 30.846C21.9921 30.1012 21.8821 29.4326 21.8313 28.8401C21.7974 28.2308 21.7805 27.5537 21.7805 26.8089C21.7805 24.6422 21.9159 22.6533 22.1868 20.8421L23.3293 21.096C23.4478 21.6546 23.5071 22.264 23.5071 22.9241C23.5071 23.2965 23.4817 23.9398 23.4309 24.8538C23.3971 25.7679 23.3801 26.4619 23.3801 26.9359C23.3801 27.7653 23.414 28.4847 23.4817 29.0941C23.5663 29.6865 23.7102 30.2705 23.9133 30.846C24.1334 31.4046 24.4635 31.8362 24.9036 32.1409C25.3437 32.4456 25.8938 32.598 26.554 32.598C27.2987 32.598 28.1028 32.4287 28.9661 32.0901C28.9999 31.4638 29.0338 29.8642 29.0676 27.2913C29.1015 24.7015 29.1861 22.7549 29.3215 21.4515ZM34.9849 24.0413L35.0864 34.096C34.8325 34.2314 34.5278 34.2991 34.1724 34.2991C33.9015 34.2991 33.5968 34.2568 33.2583 34.1722C33.3091 33.1058 33.3429 31.0068 33.3599 27.8753C33.3768 24.7438 33.4445 22.4248 33.563 20.9183L34.7056 21.1722L34.7817 22.5941C35.6789 21.6461 36.7114 21.1722 37.8794 21.1722C38.4718 21.1722 38.9458 21.2145 39.3013 21.2991C39.6567 21.3838 39.9953 21.5954 40.3169 21.9339C40.6554 22.2555 40.9093 22.6872 41.0786 23.2288C41.2479 23.7705 41.4002 24.5491 41.5356 25.5648C41.6711 26.5635 41.7642 27.7399 41.8149 29.0941C41.8826 30.4313 41.925 32.124 41.9419 34.1722C41.8403 34.206 41.6457 34.223 41.3579 34.223C40.7485 34.223 40.2746 34.1468 39.936 33.9944C39.8683 33.7236 39.8345 33.275 39.8345 32.6487C39.8345 32.3271 39.8429 31.7262 39.8599 30.846C39.8937 29.9489 39.9106 29.2549 39.9106 28.764C39.9106 27.9515 39.8768 27.2405 39.8091 26.6312C39.7583 26.0218 39.6483 25.4209 39.479 24.8284C39.3267 24.236 39.0812 23.779 38.7427 23.4573C38.4211 23.1357 38.0148 22.9749 37.5239 22.9749C36.9653 22.9749 36.5252 23.0172 36.2036 23.1019C35.8989 23.1865 35.6789 23.2881 35.5435 23.4066C35.425 23.525 35.2388 23.7366 34.9849 24.0413ZM53.1912 34.8577L51.7947 34.5784C51.7947 34.2399 51.7862 33.986 51.7693 33.8167C50.8721 34.3922 49.9242 34.68 48.9255 34.68C47.3852 34.68 46.1833 34.0198 45.3201 32.6995C44.4737 31.3792 44.0505 29.8812 44.0505 28.2054C44.0505 27.3421 44.1098 26.5296 44.2283 25.7679C44.3637 25.0062 44.5837 24.2275 44.8884 23.4319C45.21 22.6194 45.7009 21.9762 46.3611 21.5023C47.0382 21.0283 47.8507 20.7913 48.7986 20.7913C49.7296 20.7913 50.6013 21.0198 51.4138 21.4769C51.5492 19.6826 51.6169 17.8714 51.6169 16.0433C51.6169 15.2138 51.6085 14.6045 51.5915 14.2151C52.404 14.3675 53.0473 14.5622 53.5212 14.7991L53.1912 34.8577ZM51.5662 32.1409L51.49 23.9651C51.2869 23.542 50.9652 23.2119 50.5251 22.9749C50.102 22.721 49.6449 22.5941 49.154 22.5941C48.4939 22.5941 47.9268 22.8056 47.4529 23.2288C46.9958 23.652 46.6658 24.2191 46.4626 24.93C46.2764 25.624 46.141 26.2757 46.0564 26.8851C45.9887 27.4944 45.9548 28.1377 45.9548 28.8148C45.9548 31.6924 46.9197 33.1312 48.8494 33.1312C49.4926 33.1312 50.0766 33.0465 50.6013 32.8773C51.143 32.6911 51.4646 32.4456 51.5662 32.1409ZM56.1885 21.1468L57.3564 21.4007C57.4919 22.7887 57.6103 24.9723 57.7119 27.9515C57.8135 30.9137 57.8812 32.7503 57.915 33.4612C57.7627 33.986 57.4665 34.2484 57.0264 34.2484C56.7217 34.2484 56.4254 34.1299 56.1377 33.8929C55.8669 33.639 55.6976 33.3343 55.6299 32.9788C55.6637 32.2848 55.7314 30.4821 55.833 27.5706C55.9346 24.6422 56.0531 22.501 56.1885 21.1468ZM56.5439 16.6019C57.001 16.6019 57.3818 16.805 57.6865 17.2112C57.9912 17.6006 58.1435 18.0491 58.1435 18.5569C58.1435 18.9293 58.0504 19.234 57.8643 19.471C57.695 19.6911 57.458 19.8011 57.1533 19.8011C56.6794 19.8011 56.307 19.6064 56.0361 19.2171C55.7653 18.8278 55.6299 18.3707 55.6299 17.846C55.6299 17.4736 55.706 17.1774 55.8584 16.9573C56.0277 16.7204 56.2562 16.6019 56.5439 16.6019ZM61.1916 23.2288L60.6838 21.9339C61.1239 21.4938 61.6825 21.1468 62.3596 20.8929C63.0367 20.622 63.7053 20.4866 64.3655 20.4866C67.2261 20.4866 68.6565 22.958 68.6565 27.9007C68.6565 28.5778 68.6142 29.5765 68.5295 30.8968C68.4618 32.2171 68.428 33.2073 68.428 33.8675C68.2926 34.3922 68.0302 34.6546 67.6409 34.6546C67.3362 34.6546 67.0569 34.5023 66.803 34.1976C66.5491 33.8929 66.4221 33.5543 66.4221 33.1819C66.4221 33.0635 66.4306 32.9788 66.4475 32.928C65.398 33.9437 64.2808 34.4515 63.0959 34.4515C62.1988 34.4515 61.4117 34.1299 60.7346 33.4866C60.0745 32.8265 59.7444 32.0309 59.7444 31.0999C59.7444 29.5257 60.3537 28.1038 61.5725 26.8343C62.8082 25.5648 64.2047 24.93 65.762 24.93C65.8297 24.93 65.8974 24.9385 65.9651 24.9554C66.0328 24.9554 66.109 24.9638 66.1936 24.9808C66.2952 24.9977 66.3713 25.0062 66.4221 25.0062C66.2867 23.0257 65.4996 22.0355 64.0608 22.0355C63.2144 22.0355 62.258 22.4332 61.1916 23.2288ZM66.4983 31.1761C66.5321 29.9912 66.5491 29.0941 66.5491 28.4847C66.5491 27.9769 66.5321 27.2659 66.4983 26.3519H66.2952C65.0933 26.3688 63.9931 26.8174 62.9944 27.6976C62.0126 28.5778 61.5217 29.6442 61.5217 30.8968C61.5217 31.4385 61.6825 31.8701 62.0041 32.1917C62.3427 32.5133 62.7489 32.6741 63.2229 32.6741C63.9677 32.6741 65.0595 32.1748 66.4983 31.1761ZM71.3237 16.7796L72.4917 17.0335L73.0503 33.4612C72.8979 33.986 72.6017 34.2484 72.1616 34.2484C71.8569 34.2484 71.5607 34.1299 71.2729 33.8929C71.0021 33.639 70.8328 33.3343 70.7651 32.9788L71.3237 16.7796Z" fill="black"/>
</svg>
